<!-- icon666.com - MILLIONS vector ICONS FREE --><svg id="Слой_1" enable-background="new 0 0 2000 2000" viewBox="0 0 2000 2000" xmlns="http://www.w3.org/2000/svg"><path d="m1062.693 1535.687c-30.135-20.935-86.919-28.867-108.35 8.252-1.283 2.222-1.619 4.486-1.279 6.569-25.818 27.647-16.274 75.381 8.091 101.66 31.276 33.733 90.445 34.891 119.898-1.671 28.594-35.497 18.155-89.442-18.36-114.81z" fill="#ff6389"></path><path d="m1200.452 1612.3c-34.028-18.043-102.731-36.68-126.343 6.302-1.695 3.086-1.821 6.385-.915 9.331-20.514 22.745-13.368 59.322-.045 85.453 19.799 38.832 60.431 58.607 103.196 50.089 35.463-7.063 80.014-35.779 82.456-75.625 2.137-34.851-30.545-60.807-58.349-75.55z" fill="#ff6389"></path><path d="m1339.337 1611.434c-45.472-3.657-107.467 29.747-100.774 82.21.278 2.181 1.429 4.094 2.985 5.454 5.477 44.782 52.983 77.458 96.577 73.442 42.678-3.931 86.976-41.852 87.441-86.785.464-44.753-46.51-71.126-86.229-74.321z" fill="#ff6389"></path><path d="m1554.216 1636.579c-1.523-14.527-4.563-29.305-16.741-38.089-19.245-13.88-45.777-19.257-69.001-15.808-40.1 5.955-73.636 41.719-73.029 83.186.112 7.69 6.159 12.647 12.631 13.731 11.173 35.619 54.666 54.65 90.501 43.083 36.864-11.899 59.66-47.749 55.639-86.103z" fill="#ff6389"></path><path d="m1336.916 1469.182c-31.632-5.784-93.469 6.365-97.356 46.379-1.302 1.036-2.419 2.485-3.168 4.41-18.755 48.164 42.04 87.261 82.789 93.057 36.959 5.256 94.501-6.264 99.027-51.792 4.411-44.369-40.901-84.669-81.292-92.054z" fill="#ff6389"></path><path d="m1487.411 1526.761c-21.885-3.645-71.629.897-79.839 28.027-2.063.464-3.94 1.774-5.162 4.186-17.844 35.198 44.852 64.059 70.375 69.049 25.504 4.985 80.633 5.838 86.802-29.228 6.395-36.348-42.257-67.051-72.176-72.034z" fill="#ff6389"></path><path d="m1260.49 1513.946c5.434-28.989-33.523-57.186-57.694-63.442-31.266-8.093-83.185 1.505-90.826 38.993-7.79 38.219 36.753 70.474 69.484 76.493 29.865 5.492 81.999-4.924 83.423-43.115.159-4.299-1.691-7.252-4.387-8.929z" fill="#ff6389"></path><path d="m1429.723 492.596c13.166 13.495 26.332 26.991 39.499 40.487 4.39 4.5 8.597 9.395 13.27 13.602 1.289 1.16 2.167 1.905 2.788 2.397.118.182.219.344.377.577 3.458 5.065 9.464 8.15 15.646 6.367 17.221-4.967 31.337-8.385 47.11-17.453 15.574-8.953 30.839-18.452 45.789-28.412 20.997-13.988 42.373-28.518 61.306-45.255 34.688-30.664 80.705-80.522 78.188-130.758-1.875-37.414-32.763-65.234-69.237-65.672-37.624-.452-75.809 18.841-108.68 34.816-66.11 32.129-131.704 69.355-187.711 117.034-9.14 7.781.027 19.569 9.749 18.763 17.781 17.297 34.615 35.783 51.906 53.507z" fill="#ff6389"></path><path d="m1594.715 547.198c-30.975 12.401-78.705 26.52-96.422 56.835-2.016 3.45-.795 6.864 1.804 8.892 2.887 37.618-10.134 77.442-5.54 115.028 1.591 13.015 9.814 24.232 24.234 24.234 64.172.007 128.073-8.142 189.348-27.623 41.222-13.105 87.257-30.054 122.819-55.181 22.721-16.053 42.157-37.71 45.845-66.281 4.026-31.198-13.567-61.078-37.033-80.376-42.377-34.849-96.251-24.08-144.763-9.847-33.896 9.946-67.493 21.188-100.292 34.319z" fill="#ff6389"></path><path d="m1905.339 817.445c-37.768-52.597-114.786-65.226-174.72-63.848-34.825.8-69.615 3.607-104.148 8.151-41.715 5.49-90.426 11.733-126.234 35.24-4.166 2.735-3.925 7.396-1.185 10.194-9.519 25.168-23.692 49.671-35.012 73.907-11.84 25.35-23.681 50.7-35.522 76.05-5.534 11.847-1.324 25.799 12.101 29.745 29.227 8.591 62.466 8.288 92.768 9.441 34.318 1.306 68.711.857 102.95-1.9 68.762-5.537 136.472-20.307 197.518-53.35 41.693-22.566 110.727-68.978 71.484-123.63z" fill="#ff6389"></path><path d="m671.872 431.647c-40.153-46.347-92.276-79.313-147.259-105.865-26.653-12.871-54.201-24.025-82.354-33.166-24.624-7.995-50.459-19.313-76.67-11.743-50.395 14.555-71.89 71.86-45.269 115.837 20.528 33.91 55.616 61.341 87.418 84.273 21.334 15.383 44.194 28.693 67.567 40.716 31.436 16.17 64.39 33.437 99.851 36.642 7.002.633 13.065-4.265 16.747-9.606 12.41-17.999 24.82-35.997 37.23-53.996 11.496-16.673 22.044-36.034 35.019-51.934 6.669 3.44 12.482-5.661 7.72-11.158z" fill="#ff6389"></path><path d="m534.409 630.908c-20.475-17.601-44.986-30.096-69.583-40.868-36.829-16.13-73.832-31.869-111.022-47.148-36.728-15.089-73.78-32.891-112.151-43.37-32.484-8.872-68.846-9.637-95.84 13.326-53.875 45.831-34.756 119.326 11.037 161.969 33.805 31.48 75.834 53.336 118.496 70.228 31.7 12.551 64.556 22.422 97.72 30.27 22.036 5.214 44.301 9.457 66.7 12.779 23.906 3.546 49.181 8.943 73.136 4.796 8.76-1.516 17.49-12.661 16.499-21.671-.153-1.388-.29-2.447-.415-3.283.03-.373.059-.748.09-1.177.35-4.875.365-9.808.547-14.692.56-15.07 1.121-30.141 1.681-45.211.813-21.875-1.109-46.181 2.082-68.022 2.532-1.594 3.485-5.809 1.023-7.926z" fill="#ff6389"></path><path d="m705.156 978.628c-25.483-44.19-51.242-88.223-76.895-132.315-4.276-7.349-13.004-12.894-21.703-12.449-29.479 1.508-56.387 2.277-84.566 11.595-4.752 1.571-8.277 4.943-10.453 8.993-66.272-17.518-137.211-15.605-205.229-15.523-76.059.092-160.515-3.251-211.507 63.5-106.83 139.848 192.847 172.749 272.302 173.227 50.446.303 100.87-4.794 150.538-13.441 58.905-10.255 115.34-29.172 172.434-46.523 15.584-4.735 23.386-22.657 15.079-37.064z" fill="#ff6389"></path><path d="m1557.612 1591.572c-2.86-3.023-6.422-3.975-7.842-4.336-45.489-11.561-60.167-13.058-60.167-13.058-20.029-4.549-40.016-9.328-59.915-14.433s-39.71-10.538-59.388-16.395-39.222-12.139-58.587-18.943c-13.442-4.723-26.852-9.318-40.267-13.738s-26.834-8.666-40.293-12.691c-13.459-4.026-26.956-7.831-40.529-11.37-13.572-3.539-28.27-6.488-42.026-9.448 5.377-3.158 11.201-7.21 16.153-10.993s9.227-7.897 13.695-12.281c4.468-4.383 9.194-9.055 13.116-14.016s7.549-10.172 10.866-15.688c11.609-.287 23.554-.686 35.118-1.686s23.093-2.364 34.564-4.105 22.884-3.86 34.215-6.37 22.581-5.411 33.726-8.717c7.748-2.299 17.151-4.807 26.969-7.896s20.052-6.759 29.461-11.381c9.41-4.622 17.995-10.197 24.518-17.094 6.523-6.898 10.983-15.12 12.14-25.036 1.153-9.878-.634-18.327-4.458-25.517s-9.685-13.12-16.678-17.961-15.119-8.592-23.472-11.424c-8.354-2.831-16.936-4.743-24.842-5.905-8.385-1.232-16.762-1.896-25.095-2.015-8.333-.118-16.624.309-24.839 1.26-8.214.951-16.353 2.426-24.381 4.402s-16.015 4.623-23.79 7.58c5.195-14.43 9.758-28.998 13.385-43.462s6.388-28.991 8.114-43.678c1.727-14.686 2.42-29.531 1.913-44.628-.335-9.99-1.252-20.104-2.687-30.342 26.526-10.734 56.437-25.4 88.824-47.686 40.78-28.061 76.945-62.997 106.266-105.217 12.525-18.035 42.403-62.75 62.026-128.038 35.357-117.634 14.396-223.225-4.595-275.724-16.356-45.215-41.89-84.287-41.891-84.287-8.776-13.404-18.445-26.397-29.02-38.903-16.981-20.082-35.668-37.438-55.703-52.545s-41.42-27.966-63.797-39.053-45.748-20.402-69.756-28.423-48.653-14.748-73.58-20.658c-23.955-5.68-48.121-10.001-72.407-13.03-24.286-3.028-48.695-4.763-73.135-5.268s-48.913.221-73.33 2.113-48.777 4.95-72.992 9.111c-25.551 4.39-50.82 9.502-75.587 15.799-24.767 6.298-49.034 13.781-72.58 22.916s-46.373 19.919-68.261 32.82-42.838 27.916-62.631 45.512c-17.818 15.84-34.535 33.161-49.946 51.68s-29.517 38.237-42.111 58.87-23.678 42.182-33.045 64.365c-9.368 22.182-17.019 44.997-22.75 68.163-14.212 57.453-15.109 114.985-4.893 169.722 10.215 54.737 31.543 106.677 61.778 152.946 30.236 46.269 69.38 86.867 115.228 118.917 25.149 17.58 52.325 32.568 81.145 44.53-.002.004-.004.008-.007.012-.654 12.984-.869 30.041.657 49.964 2.175 28.389 6.85 49.571 10.238 64.338 4.875 21.245 11.124 42.232 18.484 62.786s15.832 40.677 25.153 60.194c-9.789-1.404-19.878-2.828-30.012-3.853-10.134-1.024-20.314-1.648-30.284-1.453-9.971.195-19.733 1.211-29.032 3.466s-18.135 5.749-26.255 10.903c-8.854 5.621-15.792 12.649-20.771 20.505-4.978 7.856-7.998 16.54-9.017 25.473s-.037 18.114 2.987 26.965 8.09 17.371 15.241 24.98c7.902 8.409 17.208 14.614 27.384 19.169s21.223 7.459 32.606 9.267 23.102 2.52 34.624 2.689 22.846-.204 33.438-.567c6.643-.227 13.529-.428 20.525-.717 6.995-.289 14.098-.666 21.176-1.245 7.077-.579 14.128-1.361 21.019-2.459 6.89-1.099 13.62-2.514 20.054-4.361 2.154-.618 4.255-1.025 6.354-1.264s4.195-.311 6.339-.26 4.335.224 6.623.477 4.674.583 7.207.947c32.239 42.192 70.775 77.944 113.546 106.598s89.776 50.206 138.956 63.998 100.533 19.823 151.999 17.431 103.044-13.205 152.673-33.103c8.002-3.208 16.507-6.559 25.135-10.19 8.627-3.631 17.377-7.543 25.866-11.874s16.72-9.083 24.308-14.392c7.589-5.309 14.536-11.177 20.46-17.741 1.995-2.211 3.348-4.912 4.05-7.764s.753-5.854.144-8.666c-.289-1.326-1.132-4.678-3.822-7.52z" fill="#ffb0c3"></path><ellipse cx="1336.191" cy="804.895" fill="#ff8faa" rx="62.02" ry="36.581"></ellipse><ellipse cx="714.837" cy="804.895" fill="#ff8faa" rx="62.02" ry="36.581"></ellipse><path d="m777.919 410.083c-62.833 1.278-120.932 56.747-157.495 103.206-20.517 26.071-38.227 54.121-51.982 84.351-6.595 14.493-12.58 29.331-17.498 44.479-5.718 17.611-8.941 30.261 1.711 45.72 3.095 4.492 8.724 6.458 13.723 3.598 14.467-8.277 17.264-16.802 22.496-32.566 4.559-13.734 9.038-27.32 14.904-40.576 12.247-27.674 27.971-54.198 46.438-78.182 18.741-24.339 40.184-46.454 63.358-66.56 22.375-19.413 46.834-36.28 66.255-58.86 1.453-1.69.572-4.66-1.91-4.61z" fill="#ffcfda"></path><path d="m1032.04 349.317c-37.904-9.126-82.211-2.78-120.191 3.427-18.993 3.104-37.827 7.776-55.568 15.286-14.623 6.19-33.233 13.122-41.371 27.505-.589 1.041-.012 2.163 1.037 2.55 13.881 5.116 29.967.614 44.346-1.173 17.912-2.226 35.721-5.262 53.55-8.162 37.955-6.174 76.233-3.076 113.939-7.986 16.426-2.138 23.451-26.826 4.258-31.447z" fill="#ffcfda"></path><g fill="#ffa3b9"><path d="m389.507 623.854c-7.846-16.205-28.059-20.984-43.505-28.363-16.467-7.867-32.807-16.231-49.682-23.199-27.169-11.22-66.855-27.759-94.875-11.442-4.69 2.731-4.282 9.172 0 11.992 12.781 8.415 28.018 11.071 42.44 15.568 17.41 5.429 33.813 13.507 50.384 21.013 16.147 7.315 32.198 14.847 48.286 22.291 13.832 6.4 24.322 13.804 39.69 9.992 8.108-2.013 10.561-11.037 7.262-17.852z"></path><path d="m324.839 900.083c-20.228-11.613-53.598-.163-76.158 1.669-26.634 2.163-56.167.064-81.348 10.001-6.611 2.609-6.502 10.741 0 13.392 26.178 10.674 57.753 6.73 85.315 5.02 22.058-1.369 57.838 2.013 74.182-14.632 4.403-4.485 3.549-12.269-1.991-15.45z"></path><path d="m429.91 896.845c-22.906-.419-46.697.403-67.696 10.31-2.956 1.395-1.696 5.409.829 6.346 21.158 7.848 44.543 8.813 66.867 11.078 17.474 1.773 18.124-27.403 0-27.734z"></path><path d="m478.584 358.14c-24.586-15.713-67.969-38.527-97.51-26.097-4.605 1.938-6.881 8.807-1.521 11.634 13.339 7.034 28.707 9.971 42.614 15.946 14.774 6.347 27.995 15.502 42.397 22.5 15.986 7.768 29.231-14.261 14.02-23.983z"></path><path d="m1640.255 335.094c-14.582-5.235-32.636-.581-47.192 3.44-16.818 4.646-35.325 11.216-50.031 20.627-10.65 6.816-4 26.432 9.067 21.505 16.932-6.384 33.106-14.755 49.999-21.379 13.517-5.301 28.709-8.765 39.603-18.712 1.951-1.781.741-4.696-1.446-5.481z"></path><path d="m1507.09 394.827c-8-4.805-14.325-.611-22.023 2.716-7.786 3.365-15.11 6.807-22.373 11.199-2.508 1.517-4.318 4.347-4.215 7.348-.137-.254-.275-.508-.412-.762-2.742 2.678-.567 7.066 3.001 7.244-.032-.155-.064-.31-.097-.465 2.027 2.415 5.431 2.706 8.28 2.189 8.414-1.53 16.247-3.806 24.374-6.453 8.129-2.648 14.798-3.856 17.631-12.779 1.219-3.838-.819-8.227-4.166-10.237z"></path><path d="m1663.756 568.632c-19.768-.144-39.76 8.054-57.982 15.07-16.225 6.246-29.909 12.652-39.643 27.491-1.669 2.544.606 5.244 3.165 5.515 18.013 1.904 32.806-4.471 49.781-9.78 16.897-5.285 34.819-7.853 50.91-15.291 11.568-5.349 5.256-22.922-6.231-23.005z"></path><path d="m1754.89 555.956c-7.53-9.677-24.54-5.365-34.432-1.61-9.338 3.544-20.152 9.064-22.912 19.584-.784 2.987.995 5.641 3.772 6.644 8.54 3.082 18.422.266 27.101-.788 11.029-1.339 21.129.263 28.311-9.572 3.333-4.563 1.17-10.39-1.84-14.258z"></path><path d="m1752.03 811.198c-27.858.51-55.726.048-83.573.881-24.294.727-53.902-2.5-76.789 6.439-3.417 1.335-4.95 6.449-1.106 8.461 21.202 11.099 50.45 10.613 73.916 12.426 29.129 2.25 58.356 1.864 87.552 1.497 19.104-.239 19.147-30.055 0-29.704z"></path><path d="m1162.5 1710.625c-8.147-4.079-18.008-1.888-26.615-5.288-8.782-3.469-14.116-11.502-22.176-15.591-1.45-.736-3.208-.124-3.683 1.499-6.517 22.215 39.124 47.172 53.724 29.074 2.312-2.866 2.631-7.751-1.25-9.694z"></path><path d="m1334.93 1722.088c-4.624-2.065-8.428-1.392-13.143.018-3.841 1.149-7.295 2.333-11.343 2.573-4.687.278-7.685 7.367-2.629 9.705 8.7 4.023 23.751 8.409 29.843-1.891 1.923-3.251 1.023-8.73-2.728-10.405z"></path><path d="m994.563 1620.675c-1.558-1.856-2.379-3.919-4.381-5.71-2.03-1.815-4.301-3.303-6.306-5.153-4.242-3.915-7.382-8.52-9.769-13.763-2.513-5.519-11.984-1.589-9.871 4.162 2.409 6.558 5.818 12.484 10.509 17.685 2.298 2.548 4.926 5.135 7.959 6.762 3.381 1.814 5.91 1.521 9.541 1.614 3.051.08 4.045-3.54 2.318-5.597z"></path><path d="m1346.805 1506.833c-7.536-4.597-14.781-5.645-23.463-5.099-4.465.281-5.614 6.631-1.077 7.957 5.664 1.654 12.188 5.035 16.839 8.774 4.519 3.634 6.705 9.8 11.831 12.402 4.54 2.304 10.405-.479 10.357-5.943-.071-7.998-8.152-14.226-14.487-18.091z"></path><path d="m1475.33 1679.751c-3.764-1.11-7.667-.346-11.55-.556-3.784-.205-7.05.036-10.813.341-2.941.239-4.652 3.649-2.455 5.927 3.344 3.468 5.999 5.453 10.685 6.927 4.517 1.421 9.477 2.807 14.133 1.55 7.109-1.92 6.888-12.158 0-14.189z"></path></g><path d="m1300.444 1580.816c-14.333-18.477-48.686-21-69.915-26.402-27.48-6.992-57.27-21.375-85.863-20.202-2.76.113-4.427 3.548-2.319 5.598 19.304 18.772 50.192 25.327 75.494 32.038 13.49 3.578 27.153 6.508 40.593 10.274 12.352 3.461 24.359 10.067 37.237 10.219 6.427.075 8.14-7.184 4.773-11.525z" fill="#ffcfda"></path><path d="m1403.892 1604.519c-7.477-4.801-17.077-5.422-25.653-7.396-9.26-2.132-18.256-5.641-27.581-7.31-7.786-1.394-11.921 8.056-5.343 12.674 8.233 5.78 18.512 9.303 27.948 12.687 9.339 3.349 18.706 6.711 28.602 4.857 7.606-1.425 7.705-11.866 2.027-15.512z" fill="#ffcfda"></path><path d="m763.1 1423.912c-12.067-.146-64.013-3.587-62.477 17.62.14 1.933 1.229 3.509 3.116 4.092 7.187 2.222 16.22-2.772 23.787-3.239 11.829-.73 23.722-1.296 35.575-1.499 10.915-.188 10.942-16.842-.001-16.974z" fill="#ffcfda"></path><path d="m1337.763 1323.098c-9.728-8.06-21.097-7.74-33.361-7.443-11.097.268-24.488.969-32.982 8.801-2.969 2.737-1.141 7.171 2.213 8.382 9.453 3.414 20.852.825 30.77.7 10.703-.135 20.777 2.522 30.978-1.413 3.395-1.31 5.822-6.177 2.382-9.027z" fill="#ffcfda"></path><path d="m1730.618 753.613c-34.837.792-69.596 3.658-104.148 8.126-20.308 2.626-43.972 5.223-66.677 10.395.88-7.067 1.604-14.146 2.148-21.235 49.578-2.965 98.671-11.243 146.188-26.368 41.179-13.107 87.298-30.05 122.825-55.153 22.719-16.052 42.154-37.707 45.841-66.277 4.026-31.196-13.566-61.074-37.031-80.37-42.375-34.847-96.247-24.077-144.755-9.845-33.897 9.945-67.476 21.24-100.283 34.351-16.989 6.789-34.383 13.511-50.68 21.847-1.863.953-3.809 1.931-5.798 2.936-2.993-8.253-6.316-16.403-9.856-24.479 23.299-9.228 44.232-23.008 65.81-37.383 20.997-13.988 42.374-28.517 61.307-45.254 34.689-30.665 80.708-80.522 78.192-130.759-1.874-37.424-32.771-65.189-69.241-65.637-37.62-.462-75.807 18.82-108.678 34.783-51.613 25.064-105.428 53.215-152.346 88.116-58.302-41.31-127.177-64.86-198.354-81.736-95.822-22.718-195.002-23.717-291.864-7.074-95.863 16.471-187.747 43.098-264.11 104.417-35.747-34.284-80.491-59.9-124.523-81.187-26.644-12.881-54.186-24.043-82.331-33.195-24.622-8.006-50.452-19.334-76.668-11.771-50.558 14.585-71.699 71.769-45.219 115.82 20.386 33.913 55.601 61.443 87.36 84.32 21.337 15.37 44.212 28.675 67.578 40.696 17.588 9.049 36.573 19.487 56.141 26.923-10.72 19.393-20.118 39.48-28.037 60.055-12.497-7.045-25.709-12.986-38.586-18.634-36.822-16.15-73.82-31.909-111.004-47.208-36.737-15.116-73.762-32.879-112.155-43.354-32.495-8.866-68.868-9.625-95.864 13.35-53.874 45.849-34.73 119.325 11.061 161.974 33.801 31.482 75.828 53.341 118.487 70.236 31.699 12.554 64.556 22.424 97.719 30.271 22.036 5.214 44.301 9.457 66.7 12.779 11.677 1.732 24.024 4.183 36.353 5.471 1.623 18.554 4.534 36.87 8.64 54.851-58.387-11.001-119.516-9.557-178.451-9.486-76.059.092-160.515-3.251-211.507 63.5-106.83 139.848 192.847 172.749 272.302 173.227 50.446.303 100.87-4.794 150.538-13.441 24.652-4.292 48.86-10.146 72.877-16.722 41.297 43.951 91.912 79.629 149.033 103.341-4.424 81.003 19.472 164.012 54.541 237.316-39.157-5.628-83.102-11.571-115.585 9.048-35.418 22.482-40.163 67.484-11.56 97.923 31.607 33.637 85.682 32.008 128.052 30.559 26.573-.909 57.037-1.395 82.773-8.782 8.615-2.472 16.392-1.558 26.523-.1 12.678 16.591 26.321 32.183 40.821 46.741-15.29 28.031-5.331 67.58 16.039 90.629 25.068 27.038 68.027 33.086 99.27 15.619.631 15.76 5.831 32.079 12.724 45.599 19.799 38.832 60.431 58.607 103.196 50.089 25.138-5.007 54.825-20.902 70.861-43.92 14.913 33.837 54.297 56.358 90.919 52.985 36.721-3.382 74.614-31.936 84.781-68.461 18.739 19.059 49.289 27.119 75.671 18.604 36.864-11.899 59.66-47.748 55.639-86.102-.544-5.188-1.304-10.399-2.583-15.367 1.944-1.842 3.834-3.724 5.606-5.687 4.977-5.515 5.958-14.085 2.8-20.421 2.639-34.716-43.728-63.53-72.629-68.343-17.519-2.918-52.879-.58-70.51 14.38-8.125-35.901-45.812-65.711-79.985-71.96-22.707-4.152-60.984.941-82.223 18.94-11.261-18.387-35.135-33.279-51.897-37.618-5.361-1.388-11.337-2.241-17.585-2.537 6.529-7.192 12.406-15.078 17.531-23.603 46.445-1.142 92.71-7.882 137.297-21.106 30.974-9.187 88.437-21.725 93.062-61.373 4.606-39.486-37.818-56.116-69.417-60.761-33.428-4.914-66.814-.767-97.883 10.971 19.163-52.737 29.21-105.448 20.701-161.938 71.303-29.331 135.176-74.437 183.275-136.976 21.151 2.658 43.504 2.371 63.611 3.136 34.319 1.305 68.71.852 102.95-1.895 68.756-5.518 136.48-20.312 197.517-53.35 41.69-22.565 110.724-68.976 71.482-123.626-37.781-52.61-114.773-65.192-174.719-63.83zm-179.547-149.286c17.079-6.127 33.777-13.262 50.813-19.533 31.968-11.769 64.588-22.214 97.228-31.943 26.371-7.861 56.222-17.737 84.151-13.696 27.068 3.916 59.393 31.84 53.374 61.509-8.933 44.029-84.3 64.189-121.687 76.027-49.362 15.63-100.428 23.504-151.93 26.06-1.044-32.952-5.74-65.709-14.318-97.555.79-.294 1.58-.587 2.369-.869zm22.149-265.329c21.824-10.066 44.322-19.646 67.776-25.242 6.772-1.616 12.32-2.729 19.008-2.901 7.624-.195 6.211-.364 11.219.971 1.22.326 6.953 2.632 1.953.36 1.783.81 3.934 1.727 5.452 2.987 11.683 9.693 14.185 20.868 10.244 35.455-6.96 25.76-28.698 48.49-46.287 67.338-37.489 40.172-88.37 62.747-131.184 95.32-12.271-21.991-26.701-43.089-43.481-62.934-11.279-13.338-23.324-25.449-36.003-36.522 47.208-24.618 92.901-52.507 141.303-74.832zm-1070.763 142.45c-22.983-11.767-45.136-24.969-66.471-39.508-13.812-9.412-27.099-19.376-39.689-30.376-16.187-14.144-38.778-31.694-44.612-53.24-3.408-12.589 2.682-25.137 12.517-33.304 12.607-10.469 26.357-9.674 41.413-5.628 28.333 7.613 56.512 15.756 83.923 26.3 50.959 19.601 95.621 48.624 141.352 76.974-27.284 24.726-51.889 52.933-73.116 83.59-18.133-8.761-37.474-15.672-55.317-24.808zm-27.499 260.535c-20.203-2.745-41.107-3.836-60.137-7.592-28.722-5.669-57.134-12.921-85.023-21.828-38.275-12.223-67.784-23.335-101.999-43.447-36.782-21.621-95.631-67.132-61.208-115.391 18.51-25.95 51.178-18.621 77.398-10.606 34.988 10.695 69.516 23.191 103.904 35.655 35.167 12.745 70.178 25.922 105.053 39.444 13.626 5.283 27.621 10.681 41.903 14.76-3.171 9.841-6.069 19.752-8.541 29.745-6.556 26.499-10.244 53.01-11.35 79.26zm-59.704 283.43c-58.792 3.764-118.2 1.061-175.87-11.415-26.683-5.773-54.17-12.228-79.347-22.929-25.116-10.675-49.902-25.592-32.193-54.569 36.544-59.798 121.854-51.725 182.116-54.298 60.259-2.573 121.576-.031 181.371-8.606 13.668 46.188 35.305 89.711 63.475 128.679-45.539 11.405-91.626 20.07-139.552 23.138zm561.801 607.226c-13.334-14.842-18.959-36.233-16.478-56.252 27.655 25.369 57.999 47.205 90.297 65.259-21.744 15.934-55.721 11.138-73.819-9.007zm239.34 76.551c-25.849 27.954-74.259 38.884-103.69 10.668-15.571-14.928-25.385-37.799-27.048-60.568 43.753 20.025 90.308 33.48 137.993 39.812-1.717 3.297-4.087 6.662-7.255 10.088zm116.104 40.965c-35.005 2.48-57.106-21.77-74.728-47.78 47.211 2.865 95.079-1.225 142.02-12.84-3.104 31.951-36.865 58.464-67.292 60.62zm161.795-57.95c-22.679 10.215-43.127 1.006-61.145-12.288 9.494-3.114 18.952-6.438 28.321-10.195 19.73-7.911 42.513-16.696 62.645-28.413 1.729 22.117-9.45 41.72-29.821 50.896zm-12.271-145.903c13.333 2.834 49.066 19.518 55.343 38.299-39.006-8.255-77.976-17.111-116.603-27.229 15.868-13.082 42.803-14.992 61.26-11.07zm-149.371-51.284c23.536 5.177 53.48 27.854 57.19 53.927-26.282-7.431-52.375-15.49-78.13-24.54-15.309-5.379-30.58-10.578-45.862-15.556 18.625-13.949 43.445-18.969 66.802-13.831zm-135.766-23.078c17.578 3.842 33.871 14.4 44.08 29.019-29.607-9.093-59.373-17.146-89.657-23.713 14.212-6.894 35.107-7.595 45.577-5.306zm264.399-525.361c-8.304 12.949-17.246 25.36-26.792 37.211-48.127 59.751-111.541 105.095-186.356 130.55-97.582 33.202-200.598 48.067-303.47 38.335-4.43-.419-5.439 6.938-1.055 7.799 108.583 21.324 227.541 14.237 331.79-25.833-.042 31.279-3.239 62.894-10.88 93.089-7.39 29.203-20.248 55.358-32.616 82.615-5.105 11.25 5.443 23.364 17.206 17.206 28.696-15.023 59.867-21.986 92.262-20.487 14.925.69 31.444 2.876 45.152 9.175 8.54 3.924 20.741 11.877 17.738 23.673-1.711 6.722-9.81 11.09-15.278 14.006-55.998 29.854-128.443 38.995-191.26 39.334-6.384-1.745-13.621-.079-17.301 6.87-19.327 36.499-55.034 61.586-96.535 65.303-16.728 1.498-23.909 29.268-4.333 32.019 10.673 1.499 21.247 3.253 31.752 5.196 9.494 1.756 18.927 3.677 28.306 5.754 29.458 6.522 58.409 14.535 87.185 23.443 10.684 3.307 21.347 6.732 32.002 10.256.531.176 1.063.349 1.595.525 14.675 4.866 29.34 9.898 44.039 15.031 22.331 7.799 44.915 14.847 67.645 21.422 10.851 3.139 21.739 6.156 32.658 9.066 33.042 8.805 66.346 16.672 99.733 23.971-4.421 2.459-8.909 4.837-13.257 7.092-5.985 3.105-12.046 6.045-18.157 8.873-13.658 6.322-27.619 11.952-41.828 16.909-8.595 2.999-17.27 5.781-26.034 8.287-3.031.866-6.085 1.621-9.129 2.422-2.661.7-5.312 1.444-7.982 2.094-38.98 9.495-78.936 13.658-118.729 12.448-9.533-.29-19.054-.922-28.552-1.831-7.064-.676-14.118-1.475-21.148-2.495-27.839-4.039-55.359-10.767-82.153-20.225-12.717-4.489-25.191-9.605-37.403-15.278-8.596-3.993-17.047-8.288-25.363-12.832-2.009-1.098-4.011-2.206-6.002-3.335-30.866-17.492-59.65-38.669-85.69-62.786-6.655-6.163-13.14-12.508-19.426-19.04-.009-.009-.017-.019-.026-.028-12.464-12.954-23.592-27.602-34.69-40.646-17.502-20.569-53.335-10.205-75.678-6.965-32.208 4.67-65.078 6.313-97.597 4.988-24.082-.981-55.539-3.459-69.295-26.69-19.485-32.907 21.633-47.399 46.956-47.604 27.013-.219 54.51 3.764 81.495 6.556 9.695 5.955 23.952-2.031 25.023-14.418.033-.385.067-.77.1-1.155.387-4.472-1.466-8.161-4.348-10.936-40.613-75.281-59.455-155.097-73.765-238.15 16.877 5.915 34.26 10.804 52.083 14.577 19.625 4.155 27.836-24.516 8.332-30.224-71.475-20.919-136.841-58.635-188.914-108.612-13.621-13.072-26.372-26.945-38.035-41.623-25.999-32.719-46.746-69.255-60.924-108.681-4.416-12.28-8.175-24.844-11.261-37.663-4.206-17.478-7.146-35.422-8.686-53.786-1.116-13.312-1.58-26.816-1.195-40.533.168-5.982.478-11.998.943-18.049 2.467-32.099 9.334-63.747 19.708-94.295 1.54-1.24 2.27-3.417 1.793-5.358 9.23-26.015 21.088-51.151 35.049-75.023 6.243-10.675 12.886-21.104 19.943-31.224 10.283-14.746 21.358-28.881 33.155-42.244 13.304-15.07 27.486-28.712 42.377-41.165 2.42-2.024 4.85-4.03 7.31-5.987 56.355-44.862 122.898-72.543 195.311-88.064 94.155-20.181 190.079-28.121 285.517-12.014 75.653 12.767 156.119 34.08 220.261 77.227.444.299.906.573 1.348.874 7.31 4.97 14.261 10.246 21.037 15.665 37.322 29.848 66.556 66.235 87.874 106.578 3.022 5.719 5.906 11.504 8.611 17.374 5.441 11.806 10.277 23.882 14.44 36.204 2.656 7.861 4.994 15.832 7.133 23.862 7.665 28.777 12.063 58.513 13.152 88.522.585 16.11.199 32.286-1.088 48.427-.843 10.575-2.1 21.124-3.741 31.631-1.43 9.151-3.133 18.263-5.164 27.317-7.245 32.292-18.255 63.846-33.071 93.683-7.203 14.498-15.206 28.407-23.807 41.82zm401.703-76.573c-15.487 15.886-36.047 26.797-55.519 37.004-53.598 28.096-114.365 40.331-174.333 44.634-32.187 2.31-64.526 2.422-96.757 1.066-12.114-.51-24.576-1.986-37.084-3.376 25.905-43.794 44.144-91.358 54.357-140.254 15.654-2.031 31.272-4.977 46.268-6.56 28.626-3.021 57.303-5.843 86.064-7.187 52.717-2.465 109.639-4.327 156.497 23.801 9.736 5.844 23.861 13.666 29.644 24.061 5.869 10.552-1.806 19.291-9.137 26.811z"></path><path d="m1142.198 717.911c-6.634-5.949-14.844-5.423-21.573 0-13.854 11.167-13.195 33.608-23.299 48.014-10.879 15.512-27.801 28.223-46.742 31.453-41.421 7.064-79.011-29.151-88.538-66.802-2.51-9.921-15.949-6.877-16.829 2.278-5.707 59.377 49.393 110.525 107.988 105.111 29.435-2.719 56.797-17.753 75.241-40.793 15.116-18.883 36.689-58.692 13.752-79.261z"></path><path d="m1037.718 1300.468c22.113 31.125 79.028 33.146 118.868 15.289 29.817-13.365 51.666-38.579 48.008-44.578-6.33-10.381-87.403 39.272-128.589 14.17-6.153-3.751-8.451-7.409-9.263-10.7-4.78-19.374 38.573-44.784 51.479-51.936 8.415-4.663 12.104-5.814 21.701-10.103 2.556-1.142 11.858-4.906 20.356-9.72 9.201-5.212 19.734-11.178 18.941-14.01-1.646-5.873-54.346-6.654-99.378 21.172-13.638 8.427-52.484 32.431-51.053 65.575.552 12.803 6.901 21.984 8.93 24.841z"></path><path d="m852.333 1264.282c-1.044-1.255-1.824-1.532 0 0z"></path><path d="m876.771 1201.224c-.314.885.579 2.763 45.158 28.5 23.987 13.848 32.509 19.828 45.136 29.796 9.137 7.212 31.597 22 22.179 34.432-6.808 8.988-25.456 11.728-36.93 12.309-11.486.581-41.474.477-78.971-19.995-26.806-14.635-37.563-28.573-40.464-26.061-4.127 3.573 10.725 37.849 40.464 58.981 35.801 25.44 80.712 22.974 107.995 11.585 7.432-3.103 26.151-10.917 34.204-28.622 3.05-6.706 3.304-12.047 3.346-13.356.373-11.639-5.496-21.606-13.49-29.932-24.01-25.005-54.508-39.757-59.473-41.831-32.126-13.419-67.606-20.163-69.154-15.806z"></path><path d="m841.332 719.81c10.62-22.173-.622-44.225-2.251-47.295-9.167-17.279-28.612-31.451-52.015-30.08-22.264 1.305-40.354 16.221-47.785 35.007-6.555 16.571-5.831 38.72 7.87 54.338 13.489 15.376 32.556 16.441 38.137 16.753 17.646.986 44.863-5.379 56.044-28.723z"></path><path d="m1278.939 601.504c-25.132 6.976-39.703 31.834-39.487 54.868.024 2.535.78 31.155 24.87 45.872 25.69 15.695 53.34.565 56.147-1.034 3.666-2.088 23.634-13.461 27.765-37.468 3.963-23.025-9.683-39.995-12.974-43.828-12.373-14.411-34.15-24.565-56.321-18.41z"></path></svg>